# xmcd
#
# Track frame offsets:
#	150
#	15183
#	32054
#	46605
#	63610
#	80728
#	95599
#	111009
#	126287
#	146376
#	162988
#	176888
#	190685
#
# Disc length: 2761 seconds
#
# Revision: 1
# Processed by: cddbd v1.5.2PL0 Copyright (c) Steve Scherf et al.
# Submitted via: audiograbber 1.83.01
#
DISCID=a70ac70d
DTITLE=Verschiedene - Die Kult Schlagerhitparade
DYEAR=2007
DGENRE=Deutsche Schlager
TTITLE0=Andrea Jürgens - Wir tanzen Lambada
TTITLE1=Jürgen Marcus - Schmetterlinge können nicht weinen
TTITLE2=Lena Valaitis - Morgen soll die Hochzeit sein
TTITLE3=Roland Kaiser - Dich zu lieben
TTITLE4=Ireen Sheer - A Domani Amore
TTITLE5=Hansi Hinterseer - Jedes Herz braucht Liebe
TTITLE6=Ireen Sheer - Ich hab den Himmel geseh´n
TTITLE7=Angelika Milster - Komm lass uns träumen
TTITLE8=Vicky Leandros - Ich hab die Liebe gesehn
TTITLE9=Hansi Hinterseer - Dann nehm ich Dich in meine Arme
TTITLE10=Tony Marshall - Junge, die Welt ist schön
TTITLE11=Nina und Mike - Fahrende Musikanten
TTITLE12=Roland Kaiser - Manchmal möchte ich schon mit Dir
EXTD=2 CD´s
EXTT0=
EXTT1=
EXTT2=
EXTT3=
EXTT4=
EXTT5=
EXTT6=
EXTT7=
EXTT8=
EXTT9=
EXTT10=
EXTT11=
EXTT12=
PLAYORDER=
